<?xml version="1.0" encoding="utf-8"?>
<!-- Generator: Adobe Illustrator 22.0.1, SVG Export Plug-In . SVG Version: 6.00 Build 0)  -->
<svg version="1.1" id="Layer_1" xmlns="http://www.w3.org/2000/svg" xmlns:xlink="http://www.w3.org/1999/xlink" x="0px" y="0px"
	 viewBox="0 0 255.1 67.7" style="enable-background:new 0 0 255.1 67.7;" xml:space="preserve">
<style type="text/css">
	.st0{fill:#F15A22;}
</style>
<path class="st0" d="M18.3,1.1L0.9,66.2h16L34.2,1.1H18.3z M88.4,1.1H68.1L41.9,21.9l0,0L29,32.1l24.8,34.1h20.4L49.4,32.1L88.4,1.1
	z M237.7,15.1c0.3-0.4,0.2-0.9-0.2-1.4l-10-12.5h-52l-3.8,14.5h64.7C236.9,15.6,237.3,15.6,237.7,15.1z M95.8,50.6
	c-0.6-0.8-0.7-1.8-0.4-2.9l7.4-27.8c0.3-1.1,1-2.2,2.1-3c1.1-0.8,2.3-1.3,3.4-1.3h53.8l3.9-14.5h-55.4c-4.8,0-10,1.8-14.6,5.5
	c-4.6,3.7-7.7,8.5-9,13.3l-7.4,27.8c-1.3,4.7-0.7,9.5,1.9,13.1c2.6,3.6,6.8,5.4,11.6,5.4h55.6l3.9-14.5H98.4
	C97.3,51.7,96.4,51.3,95.8,50.6z M247.8,26.5h-79l-3.8,14.5H244l10.2-6.4L247.8,26.5z M221.1,51.7h-59.1l-3.8,14.5h45.4l18.6-11.7
	c0.6-0.3,0.8-1.2,0.5-1.8C222.6,52.2,222.2,51.7,221.1,51.7z"/>
</svg>
